<?xml version="1.0" standalone="no"?>
<!DOCTYPE svg PUBLIC "-//W3C//DTD SVG 20010904//EN"
 "http://www.w3.org/TR/2001/REC-SVG-20010904/DTD/svg10.dtd">
<svg version="1.0" xmlns="http://www.w3.org/2000/svg"
 width="500.000000pt" height="500.000000pt" viewBox="0 0 500.000000 500.000000"
 preserveAspectRatio="xMidYMid meet">
<g transform="translate(0.000000,500.000000) scale(0.100000,-0.100000)"
fill="#000000" stroke="none">
<path d="M1170 4066 c0 -28 5 -36 30 -46 83 -34 123 -104 145 -248 12 -81 15
-296 15 -1313 0 -800 -4 -1245 -11 -1300 -18 -146 -66 -232 -147 -266 -29 -12
-33 -18 -30 -46 l3 -31 415 -1 415 0 3 31 c3 29 -1 34 -43 54 -52 25 -87 71
-113 147 -14 42 -17 122 -20 647 l-3 600 133 133 133 133 80 0 c306 -1 427
-118 615 -600 282 -720 399 -970 500 -1064 96 -90 182 -110 437 -104 203 5
233 13 233 58 0 17 -6 31 -12 31 -7 1 -38 2 -69 3 -138 3 -205 111 -447 716
-162 404 -190 471 -254 590 -65 123 -99 171 -171 247 -148 155 -307 206 -635
206 -101 -1 -182 3 -180 7 12 34 1086 1117 1171 1181 118 89 247 148 415 189
39 10 42 13 42 45 l0 35 -355 0 -355 0 0 -24 c0 -20 8 -27 49 -41 63 -21 73
-34 73 -95 0 -85 -61 -171 -294 -409 -183 -187 -828 -849 -987 -1013 -58 -60
-109 -108 -113 -108 -12 0 -10 1311 2 1393 16 109 57 177 132 217 26 13 33 24
33 46 l0 29 -417 3 -418 2 0 -34z"/>
</g>
</svg>
